# xmcd
#
# Track frame offsets:
#	150
#	12807
#	27174
#	42499
#	56788
#	70355
#	87522
#	101517
#	113864
#	128153
#
# Disc length: 1937 seconds
#
# Revision: 1
# Processed by: cddbd v1.5.2PL0 Copyright (c) Steve Scherf et al.
# Submitted via: EasyCDDAExtractor 4.6.0.1
#
DISCID=86078f0a
DTITLE=Daryle Singletary
DYEAR=1995
DGENRE=Country
TTITLE0=Too Much Fun
TTITLE1=I'm Living Up To Her Low Expectations
TTITLE2=There's A Cold Spell Movin' In
TTITLE3=Ordinary Heroes
TTITLE4=I Let Her Lie
TTITLE5=A Love That Never Died
TTITLE6=Workin' It Out
TTITLE7=My Heart's Too Broke (To Pay Attention)
TTITLE8=Would These Arms Be In Your Way
TTITLE9=What Am I Doing There
EXTD=
EXTT0=
EXTT1=
EXTT2=
EXTT3=
EXTT4=
EXTT5=
EXTT6=
EXTT7=
EXTT8=
EXTT9=
PLAYORDER=
